nColumns=19
nRows=122
DataType=double
version=3
OpenSimVersion=4.1
endheader
time	ground_force_1_vx	ground_force_1_vy	ground_force_1_vz	ground_force_1_px	ground_force_1_py	ground_force_1_pz	ground_force_1_mx	ground_force_1_my	ground_force_1_mz	ground_force_2_vx	ground_force_2_vy	ground_force_2_vz	ground_force_2_px	ground_force_2_py	ground_force_2_pz	ground_force_2_mx	ground_force_2_my	ground_force_2_mz
0.43	-10.9455	18.5124	-2.25889	0.871562	0	-0.206296	0	-1.21655	0	0	0	0	0.0001857	0	-0.000235141	0	0	0
0.44	-29.6813	70.5263	-8.5726	0.886959	0	-0.233937	0	-0.538034	0	0	0	0	0.0001857	0	-0.000235141	0	0	0
0.45	-71.4831	207.388	-18.8729	0.902444	0	-0.238523	-0	0.538125	-0	0	0	0	0.0001857	0	-0.000235141	0	0	0
0.46	-118.482	441.638	-32.2809	0.897777	0	-0.242949	-0	1.6529	-0	0	0	0	0.0001857	0	-0.000235141	0	0	0
0.47	-135.289	726.709	-43.0922	0.872959	0	-0.249657	-0	2.34603	-0	0	0	0	0.0001857	0	-0.000235141	0	0	0
0.48	-134.314	1020.8	-42.3301	0.840753	0	-0.256641	-0	2.31534	-0	0	0	0	0.0001857	0	-0.000235141	0	0	0
0.49	-156.311	1293.17	-28.3435	0.814795	0	-0.262199	-0	1.64739	-0	0	0	0	0.0001857	0	-0.000235141	0	0	0
0.5	-190.095	1510.59	-11.6163	0.793682	0	-0.266876	-0	0.822215	-0	0	0	0	0.0001857	0	-0.000235141	0	0	0
0.51	-201.641	1669.98	-3.67087	0.770749	0	-0.270809	-0	0.446465	-0	0	0	0	0.0001857	0	-0.000235141	0	0	0
0.52	-178.875	1789.99	-6.07699	0.745551	0	-0.272931	-0	0.908095	-0	0	0	0	0.0001857	0	-0.000235141	0	0	0
0.53	-137.015	1877.18	-14.0829	0.720887	0	-0.273251	-0	2.19181	-0	0	0	0	0.0001857	0	-0.000235141	0	0	0
0.54	-95.5213	1922.34	-23.5852	0.697808	0	-0.272777	-0	3.92372	-0	0	0	0	0.0001857	0	-0.000235141	0	0	0
0.55	-58.2953	1918.67	-31.2012	0.675407	0	-0.272009	-0	5.56171	-0	0	0	0	0.0001857	0	-0.000235141	0	0	0
0.56	-19.5163	1871.27	-34.1506	0.652293	0	-0.27102	-0	6.61864	-0	0	0	0	0.0001857	0	-0.000235141	0	0	0
0.57	24.2953	1790.4	-32.4559	0.627829	0	-0.270004	-0	6.82503	-0	0	0	0	0.0001857	0	-0.000235141	0	0	0
0.58	71.5019	1681.84	-28.1778	0.602185	0	-0.269158	-0	6.17749	-0	0	0	0	0.0001857	0	-0.000235141	0	0	0
0.59	118.08	1544.73	-22.5257	0.575813	0	-0.26842	-0	4.88485	-0	0	0	0	0.0001857	0	-0.000235141	0	0	0
0.6	158.072	1377.27	-15.3396	0.549211	0	-0.267571	-0	3.26869	-0	0	0	0	0.0001857	0	-0.000235141	0	0	0
0.61	185.292	1182.7	-6.80497	0.522867	0	-0.266394	-0	1.66484	-0	0	0	0	0.0001857	0	-0.000235141	0	0	0
0.62	193.424	968.594	1.79495	0.4975	0	-0.264978	-0	0.343722	-0	0	0	0	0.0001857	0	-0.000235141	0	0	0
0.63	180.032	747.918	9.26796	0.473769	0	-0.263514	0	-0.541075	0	0	0	0	0.0001857	0	-0.000235141	0	0	0
0.64	150.934	538.734	15.2834	0.450643	0	-0.261816	0	-0.962947	0	0	0	0	0.0001857	0	-0.000235141	0	0	0
0.65	113.101	358.953	19.4751	0.429577	0	-0.259194	0	-0.991469	0	0	0	0	0.0001857	0	-0.000235141	0	0	0
0.66	72.4741	218.407	20.8269	0.417951	0	-0.254888	0	-0.745053	0	0	0	0	0.0001857	0	-0.000235141	0	0	0
0.67	38.2971	116.969	18.58	0.415056	0	-0.248435	0	-0.353376	0	0	0	0	0.0001857	0	-0.000235141	0	0	0
0.68	15.451	52.6211	13.4341	0.422259	0	-0.239019	-0	0.067421	-0	0	0	0	0.0001857	0	-0.000235141	0	0	0
0.69	2.90771	19.6856	7.61042	0.477454	0	-0.220039	-0	0.440359	-0	0	0	0	0.0001857	0	-0.000235141	0	0	0
0.7	0	0	0	0.0001857	0	-0.000235141	0	0	0	0	0	0	0.0001857	0	-0.000235141	0	0	0
0.71	0	0	0	0.0001857	0	-0.000235141	0	0	0	0	0	0	0.0001857	0	-0.000235141	0	0	0
0.72	0	0	0	0.0001857	0	-0.000235141	0	0	0	0	0	0	0.0001857	0	-0.000235141	0	0	0
0.73	0	0	0	0.0001857	0	-0.000235141	0	0	0	0	0	0	0.0001857	0	-0.000235141	0	0	0
0.74	0	0	0	0.0001857	0	-0.000235141	0	0	0	0	0	0	0.0001857	0	-0.000235141	0	0	0
0.75	0	0	0	0.0001857	0	-0.000235141	0	0	0	0	0	0	0.0001857	0	-0.000235141	0	0	0
0.76	0	0	0	0.0001857	0	-0.000235141	0	0	0	0	0	0	0.0001857	0	-0.000235141	0	0	0
0.77	0	0	0	0.0001857	0	-0.000235141	0	0	0	-15.0261	24.0901	-0.853186	0.823773	0	-0.415585	-0	2.84472	-0
0.78	0	0	0	0.0001857	0	-0.000235141	0	0	0	-48.506	92.4022	4.00839	0.844355	0	-0.413093	-0	1.2971	-0
0.79	0	0	0	0.0001857	0	-0.000235141	0	0	0	-103.694	250.351	17.0506	0.860128	0	-0.401844	0	-0.887293	0
0.8	0	0	0	0.0001857	0	-0.000235141	0	0	0	-143.594	482.567	35.2895	0.859635	0	-0.390022	0	-3.12155	0
0.81	0	0	0	0.0001857	0	-0.000235141	0	0	0	-138.138	732.459	45.0259	0.836124	0	-0.381969	0	-4.72319	0
0.82	0	0	0	0.0001857	0	-0.000235141	0	0	0	-116.091	977.761	36.6389	0.800449	0	-0.378365	0	-5.29547	0
0.83	0	0	0	0.0001857	0	-0.000235141	0	0	0	-114.64	1227.35	19.3729	0.771017	0	-0.374127	0	-4.95613	0
0.84	0	0	0	0.0001857	0	-0.000235141	0	0	0	-123.87	1486.42	6.58022	0.747426	0	-0.367575	0	-4.22893	0
0.85	0	0	0	0.0001857	0	-0.000235141	0	0	0	-110.06	1718.83	-1.68159	0.721954	0	-0.363105	0	-3.74215	0
0.86	0	0	0	0.0001857	0	-0.000235141	0	0	0	-80.9434	1879.65	-6.74836	0.695989	0	-0.362807	0	-3.96557	0
0.87	0	0	0	0.0001857	0	-0.000235141	0	0	0	-62.9049	1967.97	-0.980474	0.673882	0	-0.364038	0	-5.0295	0
0.88	0	0	0	0.0001857	0	-0.000235141	0	0	0	-45.0517	2003.08	16.337	0.653952	0	-0.364558	0	-6.63614	0
0.89	0	0	0	0.0001857	0	-0.000235141	0	0	0	-7.82607	1989.08	31.4978	0.631616	0	-0.365294	0	-8.17699	0
0.9	0	0	0	0.0001857	0	-0.000235141	0	0	0	44.0989	1929.56	35.5685	0.606164	0	-0.366897	0	-9.03888	0
0.91	0	0	0	0.0001857	0	-0.000235141	0	0	0	96.5027	1834.88	34.1042	0.580441	0	-0.367902	0	-8.85778	0
0.92	0	0	0	0.0001857	0	-0.000235141	0	0	0	145.391	1705.74	32.1076	0.555562	0	-0.367408	0	-7.56738	0
0.93	0	0	0	0.0001857	0	-0.000235141	0	0	0	191.469	1534.56	25.6127	0.529564	0	-0.366632	0	-5.34386	0
0.94	0	0	0	0.0001857	0	-0.000235141	0	0	0	224.438	1321.91	12.52	0.501594	0	-0.366773	0	-2.56349	0
0.95	0	0	0	0.0001857	0	-0.000235141	0	0	0	232.442	1084.78	-1.46194	0.474213	0	-0.367087	-0	0.264294	-0
0.96	0	0	0	0.0001857	0	-0.000235141	0	0	0	217.711	844.617	-11.2342	0.450008	0	-0.366304	-0	2.63142	-0
0.97	0	0	0	0.0001857	0	-0.000235141	0	0	0	186.022	613.896	-17.4323	0.427824	0	-0.365514	-0	4.1674	-0
0.98	0	0	0	0.0001857	0	-0.000235141	0	0	0	139.976	403.813	-20.8324	0.402491	0	-0.368053	-0	4.71139	-0
0.99	0	0	0	0.0001857	0	-0.000235141	0	0	0	88.8572	233.688	-18.8428	0.372313	0	-0.374656	-0	4.33678	-0
1	0	0	0	0.0001857	0	-0.000235141	0	0	0	45.002	119.628	-10.7892	0.371219	0	-0.374816	-0	3.33954	-0
1.01	0	0	0	0.0001857	0	-0.000235141	0	0	0	15.5545	54.2396	-2.17376	0.453972	0	-0.35012	-0	2.14141	-0
1.02	0	0	0	0.0001857	0	-0.000235141	0	0	0	1.93465	20.0826	0.852359	0.624612	0	-0.296994	-0	1.1029	-0
1.03	0	0	0	0.0001857	0	-0.000235141	0	0	0	0	0	0	0.0001857	0	-0.000235141	0	0	0
1.04	0	0	0	0.0001857	0	-0.000235141	0	0	0	0	0	0	0.0001857	0	-0.000235141	0	0	0
1.05	0	0	0	0.0001857	0	-0.000235141	0	0	0	0	0	0	0.0001857	0	-0.000235141	0	0	0
1.06	0	0	0	0.0001857	0	-0.000235141	0	0	0	0	0	0	0.0001857	0	-0.000235141	0	0	0
1.07	0	0	0	0.0001857	0	-0.000235141	0	0	0	0	0	0	0.0001857	0	-0.000235141	0	0	0
1.08	0	0	0	0.0001857	0	-0.000235141	0	0	0	0	0	0	0.0001857	0	-0.000235141	0	0	0
1.09	-9.79868	15.6958	-3.31143	0.952481	0	-0.180368	0	-0.063103	0	0	0	0	0.0001857	0	-0.000235141	0	0	0
1.1	-31.9857	60.5219	-8.79373	0.954666	0	-0.219942	-0	0.724923	-0	0	0	0	0.0001857	0	-0.000235141	0	0	0
1.11	-76.2715	184.338	-19.6314	0.943991	0	-0.233242	-0	1.53057	-0	0	0	0	0.0001857	0	-0.000235141	0	0	0
1.12	-129.092	410.961	-31.9911	0.934524	0	-0.239413	-0	1.95963	-0	0	0	0	0.0001857	0	-0.000235141	0	0	0
1.13	-154.05	692.507	-37.8948	0.912904	0	-0.245872	-0	1.68704	-0	0	0	0	0.0001857	0	-0.000235141	0	0	0
1.14	-159.673	972.305	-31.5087	0.882704	0	-0.2529	-0	0.716647	-0	0	0	0	0.0001857	0	-0.000235141	0	0	0
1.15	-193.105	1221.75	-15.6989	0.858326	0	-0.258341	0	-0.50849	0	0	0	0	0.0001857	0	-0.000235141	0	0	0
1.16	-243.017	1417.12	-2.50151	0.84044	0	-0.261963	0	-1.27811	0	0	0	0	0.0001857	0	-0.000235141	0	0	0
1.17	-265.983	1558.33	-2.61747	0.819497	0	-0.264896	0	-0.996534	0	0	0	0	0.0001857	0	-0.000235141	0	0	0
1.18	-247.079	1671.92	-14.2083	0.793524	0	-0.267098	-0	0.488586	-0	0	0	0	0.0001857	0	-0.000235141	0	0	0
1.19	-204.643	1773.36	-27.294	0.767155	0	-0.26814	-0	2.84037	-0	0	0	0	0.0001857	0	-0.000235141	0	0	0
1.2	-159.037	1846.97	-36.3203	0.742332	0	-0.268484	-0	5.45043	-0	0	0	0	0.0001857	0	-0.000235141	0	0	0
1.21	-115.136	1872.22	-41.9549	0.717875	0	-0.268633	-0	7.71676	-0	0	0	0	0.0001857	0	-0.000235141	0	0	0
1.22	-71.1667	1847.77	-44.8484	0.693192	0	-0.26851	-0	9.22565	-0	0	0	0	0.0001857	0	-0.000235141	0	0	0
1.23	-26.1698	1784.57	-44.6837	0.668536	0	-0.267977	-0	9.81169	-0	0	0	0	0.0001857	0	-0.000235141	0	0	0
1.24	19.5934	1687.85	-42.4745	0.643958	0	-0.267332	-0	9.52555	-0	0	0	0	0.0001857	0	-0.000235141	0	0	0
1.25	66.8834	1559.46	-38.8033	0.618741	0	-0.266962	-0	8.55161	-0	0	0	0	0.0001857	0	-0.000235141	0	0	0
1.26	113.298	1405.5	-32.1847	0.592657	0	-0.266786	-0	7.12982	-0	0	0	0	0.0001857	0	-0.000235141	0	0	0
1.27	151.67	1232.66	-21.9784	0.566582	0	-0.266533	-0	5.51171	-0	0	0	0	0.0001857	0	-0.000235141	0	0	0
1.28	175.921	1045.66	-10.3922	0.540854	0	-0.266261	-0	3.93051	-0	0	0	0	0.0001857	0	-0.000235141	0	0	0
1.29	183.182	850.999	0.0229451	0.515603	0	-0.265946	-0	2.56224	-0	0	0	0	0.0001857	0	-0.000235141	0	0	0
1.3	174.278	659.288	8.5996	0.491015	0	-0.265083	-0	1.49405	-0	0	0	0	0.0001857	0	-0.000235141	0	0	0
1.31	151.906	483.399	15.5993	0.466827	0	-0.263279	-0	0.725994	-0	0	0	0	0.0001857	0	-0.000235141	0	0	0
1.32	118.623	334.216	20.871	0.442986	0	-0.260853	-0	0.203705	-0	0	0	0	0.0001857	0	-0.000235141	0	0	0
1.33	81.0523	216.956	23.8109	0.423241	0	-0.257898	0	-0.143007	0	0	0	0	0.0001857	0	-0.000235141	0	0	0
1.34	48.7926	129.142	23.6565	0.409527	0	-0.253603	0	-0.375293	0	0	0	0	0.0001857	0	-0.000235141	0	0	0
1.35	26.1629	66.9588	20.0059	0.396378	0	-0.24603	0	-0.536979	0	0	0	0	0.0001857	0	-0.000235141	0	0	0
1.36	10.8914	27.8887	13.8895	0.376094	0	-0.235198	0	-0.650325	0	0	0	0	0.0001857	0	-0.000235141	0	0	0
1.37	0	0	0	0.0001857	0	-0.000235141	0	0	0	0	0	0	0.0001857	0	-0.000235141	0	0	0
1.38	0	0	0	0.0001857	0	-0.000235141	0	0	0	0	0	0	0.0001857	0	-0.000235141	0	0	0
1.39	0	0	0	0.0001857	0	-0.000235141	0	0	0	0	0	0	0.0001857	0	-0.000235141	0	0	0
1.4	0	0	0	0.0001857	0	-0.000235141	0	0	0	0	0	0	0.0001857	0	-0.000235141	0	0	0
1.41	0	0	0	0.0001857	0	-0.000235141	0	0	0	0	0	0	0.0001857	0	-0.000235141	0	0	0
1.42	0	0	0	0.0001857	0	-0.000235141	0	0	0	0	0	0	0.0001857	0	-0.000235141	0	0	0
1.43	0	0	0	0.0001857	0	-0.000235141	0	0	0	0	0	0	0.0001857	0	-0.000235141	0	0	0
1.44	0	0	0	0.0001857	0	-0.000235141	0	0	0	-7.88086	14.4821	0.283754	0.806101	0	-0.367218	-0	3.00504	-0
1.45	0	0	0	0.0001857	0	-0.000235141	0	0	0	-30.0121	58.2073	1.98019	0.848882	0	-0.409354	-0	2.21136	-0
1.46	0	0	0	0.0001857	0	-0.000235141	0	0	0	-80.4759	184.041	10.5159	0.867569	0	-0.404185	-0	0.559336	-0
1.47	0	0	0	0.0001857	0	-0.000235141	0	0	0	-141.505	412.116	27.6862	0.873597	0	-0.392372	0	-1.4854	0
1.48	0	0	0	0.0001857	0	-0.000235141	0	0	0	-164.859	698.957	43.7828	0.857808	0	-0.381896	0	-3.18228	0
1.49	0	0	0	0.0001857	0	-0.000235141	0	0	0	-142.348	1010.57	43.5613	0.82164	0	-0.375722	0	-3.90272	0
1.5	0	0	0	0.0001857	0	-0.000235141	0	0	0	-123.096	1331.89	26.3974	0.786435	0	-0.371198	0	-3.52165	0
1.51	0	0	0	0.0001857	0	-0.000235141	0	0	0	-137.758	1630.33	6.48481	0.762826	0	-0.36556	0	-2.49926	0
1.52	0	0	0	0.0001857	0	-0.000235141	0	0	0	-157.334	1858.49	-7.44165	0.742879	0	-0.361413	0	-1.60993	0
1.53	0	0	0	0.0001857	0	-0.000235141	0	0	0	-150.824	1990.43	-13.6099	0.720429	0	-0.361198	0	-1.55067	0
1.54	0	0	0	0.0001857	0	-0.000235141	0	0	0	-128.712	2049.03	-6.08441	0.697864	0	-0.363145	0	-2.6188	0
1.55	0	0	0	0.0001857	0	-0.000235141	0	0	0	-99.0658	2064.84	16.0504	0.676782	0	-0.364465	0	-4.55067	0
1.56	0	0	0	0.0001857	0	-0.000235141	0	0	0	-55.8521	2036.57	37.8278	0.6545	0	-0.3654	0	-6.63638	0
1.57	0	0	0	0.0001857	0	-0.000235141	0	0	0	-2.32294	1954.71	45.2013	0.629244	0	-0.367116	0	-8.0982	0
1.58	0	0	0	0.0001857	0	-0.000235141	0	0	0	51.1602	1827.95	42.1242	0.602526	0	-0.368602	0	-8.45451	0
1.59	0	0	0	0.0001857	0	-0.000235141	0	0	0	97.9527	1666.95	38.2399	0.576276	0	-0.368426	0	-7.61716	0
1.6	0	0	0	0.0001857	0	-0.000235141	0	0	0	138.039	1471.64	32.7062	0.54991	0	-0.367463	0	-5.78826	0
1.61	0	0	0	0.0001857	0	-0.000235141	0	0	0	167.508	1241.32	21.2082	0.522073	0	-0.367469	0	-3.3528	0
1.62	0	0	0	0.0001857	0	-0.000235141	0	0	0	176.431	989.342	7.24316	0.494452	0	-0.36818	0	-0.800824	0
1.63	0	0	0	0.0001857	0	-0.000235141	0	0	0	164.625	742.106	-3.27947	0.470836	0	-0.367593	-0	1.38479	-0
1.64	0	0	0	0.0001857	0	-0.000235141	0	0	0	140.161	520.647	-10.4894	0.451542	0	-0.365766	-0	2.84713	-0
